HIERARCHY
ROOT ui
{
	 OFFSET 0 0 0
	 CHANNELS 3 XPosition YPosition Z Position
	 EndSite
	 {
	 OFFSET 0 -1 0
	 }
}
ROOT li
{
	 OFFSET 0 0 0
	 CHANNELS 3 XPosition YPosition Z Position
	 EndSite
	 {
	 OFFSET 0 -1 0
	 }
}
ROOT ul
{
	 OFFSET 0 0 0
	 CHANNELS 3 XPosition YPosition Z Position
	 EndSite
	 {
	 OFFSET 0 -1 0
	 }
}
ROOT ll
{
	 OFFSET 0 0 0
	 CHANNELS 3 XPosition YPosition Z Position
	 EndSite
	 {
	 OFFSET 0 -1 0
	 }
}
ROOT tt
{
	 OFFSET 0 0 0
	 CHANNELS 3 XPosition YPosition Z Position
	 EndSite
	 {
	 OFFSET 0 -1 0
	 }
}
ROOT tb
{
	 OFFSET 0 0 0
	 CHANNELS 3 XPosition YPosition Z Position
	 EndSite
	 {
	 OFFSET 0 -1 0
	 }
}
ROOT td
{
	 OFFSET 0 0 0
	 CHANNELS 3 XPosition YPosition Z Position
	 EndSite
	 {
	 OFFSET 0 -1 0
	 }
}
ROOT v
{
	 OFFSET 0 0 0
	 CHANNELS 3 XPosition YPosition Z Position
	 EndSite
	 {
	 OFFSET 0 -1 0
	 }
}
ROOT bn
{
	 OFFSET 0 0 0
	 CHANNELS 3 XPosition YPosition Z Position
	 EndSite
	 {
	 OFFSET 0 -1 0
	 }
}
MOTION
Frames: 10
Frame Time: 0.002
-9.120259881019592E-4	-0.0013017580509185791	0		0.4287260437011719	-2.4190849609375	0		-0.9935425415039062	0.11059832000732422	0		-0.7477721557617187	-2.449809326171875	0		1.3334296875	-0.7536934204101563	0		3.2048564453125	-0.2709557189941406	0		4.6336357421875	-0.0599346694946289	0		5.5390751953125	0.11576392364501953	0		-0.1414301300048828	5.88901953125	0		
-7.161319851875305E-4	-0.0012318539619445802	0		0.4034349365234375	-2.413603271484375	0		-0.9933673095703125	0.11048475646972657	0		-0.7471237182617188	-2.44987744140625	0		1.380671142578125	-0.7609779663085937	0		3.21506298828125	-0.2734210510253906	0		4.63381494140625	-0.0590728759765625	0		5.53924951171875	0.11685775756835938	0		-0.14232290649414062	5.8890634765625	0		
-0.004571731090545654	-0.005126632213592529	0		0.4429656677246094	-2.422964111328125	0		-1.027140625	0.11478141784667968	0		-0.7814036865234375	-2.44452197265625	0		1.342074462890625	-0.7551726684570312	0		3.217144287109375	-0.28578713989257815	0		4.63399169921875	-0.058214149475097655	0		5.5453076171875	0.10887718200683594	0		-0.29643634033203126	5.8740224609375	0		
0.0027090580463409422	0.0018240480422973633	0		0.420712646484375	-2.41455712890625	0		-1.022919189453125	0.11857868957519531	0		-0.7767044677734375	-2.4406787109375	0		1.34544580078125	-0.7519205322265625	0		3.209652587890625	-0.26404962158203127	0		4.64824169921875	-0.051549659729003904	0		5.54469189453125	0.12696272277832032	0		-0.26326776123046874	5.87958349609375	0		
-1.3458700478076934E-4	-0.0011145009994506835	0		0.4373820495605469	-2.41165234375	0		-0.9877992553710937	0.11398772430419922	0		-0.778090087890625	-2.442771728515625	0		1.34273974609375	-0.754614013671875	0		3.221697265625	-0.2795855407714844	0		4.64431884765625	-0.05869160461425781	0		5.54486181640625	0.12799870300292968	0		-0.2641476745605469	5.87955908203125	0		
0.0030953528881073	0.001858644962310791	0		0.40800238037109376	-2.411203857421875	0		-0.949640380859375	0.1123649444580078	0		-0.7055682373046875	-2.451767333984375	0		1.3820030517578126	-0.7598384399414062	0		3.23119287109375	-0.258119140625	0		4.63860595703125	-0.04885453033447266	0		5.55403271484375	0.12887547302246094	0		-0.145864501953125	5.8890849609375	0		
-0.003792931079864502	-0.00506114387512207	0		0.43454000854492186	-2.416448486328125	0		-1.0314942626953125	0.11017776489257812	0		-0.78092138671875	-2.447985595703125	0		1.335411865234375	-0.752052001953125	0		3.206313720703125	-0.267283447265625	0		4.63470068359375	-0.05509174346923828	0		5.540111328125	0.12196942901611328	0		-0.14665670776367187	5.889056640625	0		
4.509139955043793E-4	-0.0011259130239486695	0		0.41908261108398437	-2.419208984375	0		-1.0262685546875	0.11393947601318359	0		-0.7783045654296875	-2.44514892578125	0		1.34370263671875	-0.7539525146484375	0		3.21651611328125	-0.2699128723144531	0		4.64976318359375	-0.06460966491699219	0		5.55026416015625	0.12070729827880859	0		-0.28163650512695315	5.868591796875	0		
0.003684035062789917	0.001810742974281311	0		0.42571359252929686	-2.412246337890625	0		-1.01699462890625	0.12165689086914062	0		-0.7716814575195312	-2.439360595703125	0		1.347045166015625	-0.7508204956054687	0		3.23263671875	-0.27965838623046874	0		4.6542158203125	-0.04106069946289063	0		5.55453759765625	0.1294391326904297	0		-0.300255615234375	5.87173095703125	0		
0.003884536027908325	0.0017728919982910156	0		0.44024365234375	-2.41138916015625	0		-0.9869036254882813	0.11314069366455078	0		-0.7481483764648438	-2.4387646484375	0		1.3443109130859374	-0.753646240234375	0		3.215150634765625	-0.25506471252441404	0		4.648494140625	-0.032461944580078124	0		5.54574462890625	0.1322379150390625	0		-0.26774127197265624	5.87927392578125	0		
